{
    "asset": {
        "generator": "COLLADA2GLTF",
        "version": "2.0"
    },
    "scenes": [
        {
            "nodes": [
                0
            ]
        }
    ],
    "scene": 0,
    "nodes": [
        {
            "children": [
                7,
                3,
                2,
                1
            ],
            "name": "Y_UP"
        },
        {
            "mesh": 0,
            "matrix": [
                1.0,
                0.0,
                0.0,
                0.0,
                0.0,
                1.0,
                0.0,
                0.0,
                0.0,
                0.0,
                1.0,
                0.0,
                0.0007864910294301808,
                0.053151898086071017,
                0.010739498771727084,
                1.0
            ],
            "name": "Cloner.2__Copy_"
        },
        {
            "mesh": 1,
            "matrix": [
                1.0,
                0.0,
                0.0,
                0.0,
                0.0,
                1.0,
                0.0,
                0.0,
                0.0,
                0.0,
                1.0,
                0.0,
                0.0007864910294301808,
                0.053151898086071017,
                0.010739498771727084,
                1.0
            ],
            "name": "Cloner.2"
        },
        {
            "children": [
                4
            ],
            "matrix": [
                1.0,
                0.0,
                0.0,
                0.0,
                0.0,
                4.4896641959724089e-11,
                -1.0,
                0.0,
                0.0,
                1.0,
                4.4896641959724089e-11,
                0.0,
                0.0,
                0.053151898086071017,
                0.02129889838397503,
                1.0
            ],
            "name": "Null"
        },
        {
            "children": [
                5
            ],
            "matrix": [
                1.0,
                0.0,
                0.0,
                0.0,
                0.0,
                1.0,
                0.0,
                0.0,
                0.0,
                0.0,
                1.0,
                0.0,
                -0.0767429918050766,
                0.1557520031929016,
                0.0,
                1.0
            ],
            "name": "Null"
        },
        {
            "children": [
                6
            ],
            "matrix": [
                1.0,
                0.0,
                0.0,
                0.0,
                0.0,
                1.0,
                0.0,
                0.0,
                0.0,
                0.0,
                1.0,
                0.0,
                0.0,
                0.0,
                6.4891802066902189e-19,
                1.0
            ]
        },
        {
            "mesh": 2,
            "rotation": [
                -0.0,
                -0.0,
                -0.0,
                -1.0
            ],
            "name": "Cylinder"
        },
        {
            "children": [
                8
            ],
            "name": "Null.1"
        },
        {
            "children": [
                9
            ],
            "name": "Connect"
        },
        {
            "children": [
                10
            ],
            "name": "Cloner.1"
        },
        {
            "mesh": 3,
            "name": "Cloner.1"
        }
    ],
    "meshes": [
        {
            "primitives": [
                {
                    "attributes": {
                        "NORMAL": 1,
                        "POSITION": 2,
                        "TEXCOORD_0": 3
                    },
                    "indices": 0,
                    "mode": 4
                }
            ],
            "name": "ID61"
        },
        {
            "primitives": [
                {
                    "attributes": {
                        "NORMAL": 5,
                        "POSITION": 6,
                        "TEXCOORD_0": 7
                    },
                    "indices": 4,
                    "mode": 4
                }
            ],
            "name": "ID52"
        },
        {
            "primitives": [
                {
                    "attributes": {
                        "NORMAL": 9,
                        "POSITION": 10,
                        "TEXCOORD_0": 11
                    },
                    "indices": 8,
                    "mode": 4,
                    "material": 0
                }
            ],
            "name": "ID43"
        },
        {
            "primitives": [
                {
                    "attributes": {
                        "NORMAL": 13,
                        "POSITION": 14,
                        "TEXCOORD_0": 15
                    },
                    "indices": 12,
                    "mode": 4,
                    "material": 1
                }
            ],
            "name": "ID21"
        }
    ],
    "animations": [
        {
            "channels": [
                {
                    "sampler": 0,
                    "target": {
                        "node": 6,
                        "path": "rotation"
                    }
                }
            ],
            "samplers": [
                {
                    "input": 16,
                    "interpolation": "LINEAR",
                    "output": 17
                }
            ]
        }
    ],
    "accessors": [
        {
            "bufferView": 0,
            "byteOffset": 0,
            "componentType": 5123,
            "count": 3240,
            "max": [
                2959
            ],
            "min": [
                0
            ],
            "type": "SCALAR"
        },
        {
            "bufferView": 1,
            "byteOffset": 0,
            "componentType": 5126,
            "count": 2960,
            "max": [
                0.9981340169906616,
                1.0,
                1.0
            ],
            "min": [
                -0.9939990043640136,
                -0.993071973323822,
                -1.0
            ],
            "type": "VEC3"
        },
        {
            "bufferView": 1,
            "byteOffset": 35520,
            "componentType": 5126,
            "count": 2960,
            "max": [
                0.08606220036745072,
                0.03631109744310379,
                0.09913809597492218
            ],
            "min": [
                -0.24915999174118046,
                -0.09320399910211565,
                -0.10968399792909622
            ],
            "type": "VEC3"
        },
        {
            "bufferView": 2,
            "byteOffset": 0,
            "componentType": 5126,
            "count": 2960,
            "max": [
                0.0,
                0.0
            ],
            "min": [
                0.0,
                0.0
            ],
            "type": "VEC2"
        },
        {
            "bufferView": 0,
            "byteOffset": 6480,
            "componentType": 5123,
            "count": 3240,
            "max": [
                3002
            ],
            "min": [
                0
            ],
            "type": "SCALAR"
        },
        {
            "bufferView": 1,
            "byteOffset": 71040,
            "componentType": 5126,
            "count": 3003,
            "max": [
                0.9984620213508606,
                1.0,
                1.0
            ],
            "min": [
                -0.9969679713249208,
                -1.0,
                -1.0
            ],
            "type": "VEC3"
        },
        {
            "bufferView": 1,
            "byteOffset": 107076,
            "componentType": 5126,
            "count": 3003,
            "max": [
                0.08606220036745072,
                0.09097488969564438,
                0.10968799144029618
            ],
            "min": [
                -0.2498869895935059,
                -0.03634729608893395,
                -0.0995967909693718
            ],
            "type": "VEC3"
        },
        {
            "bufferView": 2,
            "byteOffset": 23680,
            "componentType": 5126,
            "count": 3003,
            "max": [
                0.0,
                0.0
            ],
            "min": [
                0.0,
                0.0
            ],
            "type": "VEC2"
        },
        {
            "bufferView": 0,
            "byteOffset": 12960,
            "componentType": 5123,
            "count": 558,
            "max": [
                133
            ],
            "min": [
                0
            ],
            "type": "SCALAR"
        },
        {
            "bufferView": 1,
            "byteOffset": 143112,
            "componentType": 5126,
            "count": 134,
            "max": [
                0.7573069930076599,
                1.0,
                0.9951390027999878
            ],
            "min": [
                -1.0,
                -1.0,
                -0.9951390027999878
            ],
            "type": "VEC3"
        },
        {
            "bufferView": 1,
            "byteOffset": 144720,
            "componentType": 5126,
            "count": 134,
            "max": [
                0.1716279983520508,
                -0.04971569776535034,
                0.02639859914779663
            ],
            "min": [
                -0.015103798359632492,
                -0.24066899716854096,
                -0.02639859914779663
            ],
            "type": "VEC3"
        },
        {
            "bufferView": 2,
            "byteOffset": 47704,
            "componentType": 5126,
            "count": 134,
            "max": [
                1.0,
                1.0
            ],
            "min": [
                0.0,
                0.0
            ],
            "type": "VEC2"
        },
        {
            "bufferView": 0,
            "byteOffset": 14076,
            "componentType": 5123,
            "count": 3096,
            "max": [
                3095
            ],
            "min": [
                0
            ],
            "type": "SCALAR"
        },
        {
            "bufferView": 1,
            "byteOffset": 146328,
            "componentType": 5126,
            "count": 3096,
            "max": [
                0.7895389795303345,
                0.8043959736824036,
                0.579364001750946
            ],
            "min": [
                -0.7900229692459106,
                -0.7886750102043152,
                -0.579364001750946
            ],
            "type": "VEC3"
        },
        {
            "bufferView": 1,
            "byteOffset": 183480,
            "componentType": 5126,
            "count": 3096,
            "max": [
                -0.0367622971534729,
                0.08777619153261185,
                0.02432159893214703
            ],
            "min": [
                -0.10352399945259094,
                0.018527599051594739,
                -0.2932269871234894
            ],
            "type": "VEC3"
        },
        {
            "bufferView": 2,
            "byteOffset": 48776,
            "componentType": 5126,
            "count": 3096,
            "max": [
                1.0,
                1.0
            ],
            "min": [
                0.0,
                0.0
            ],
            "type": "VEC2"
        },
        {
            "bufferView": 3,
            "byteOffset": 0,
            "componentType": 5126,
            "count": 2,
            "max": [
                4.0
            ],
            "min": [
                0.0
            ],
            "type": "SCALAR"
        },
        {
            "bufferView": 4,
            "byteOffset": 0,
            "componentType": 5126,
            "count": 2,
            "max": [
                -0.0,
                -0.0,
                -0.0,
                -0.9999619126319884
            ],
            "min": [
                -0.008726535364985466,
                -0.0,
                -0.0,
                -1.0
            ],
            "type": "VEC4"
        }
    ],
    "materials": [
        {
            "pbrMetallicRoughness": {
                "baseColorTexture": {
                    "index": 0
                },
                "metallicFactor": 0.0
            },
            "name": "ID12"
        },
        {
            "pbrMetallicRoughness": {
                "baseColorTexture": {
                    "index": 1
                },
                "metallicFactor": 0.0
            },
            "name": "ID2"
        }
    ],
    "textures": [
        {
            "sampler": 0,
            "source": 0
        },
        {
            "sampler": 0,
            "source": 1
        }
    ],
    "images": [
        {
            "uri": "data:image/tif;base64,"
        },
        {
            "uri": "data:image/tif;base64,"
        }
    ],
    "samplers": [
        {
            "magFilter": 9729,
            "minFilter": 9986,
            "wrapS": 10497,
            "wrapT": 10497
        }
    ],
    "bufferViews": [
        {
            "buffer": 0,
            "byteOffset": 294216,
            "byteLength": 20268,
            "target": 34963
        },
        {
            "buffer": 0,
            "byteOffset": 32,
            "byteLength": 220632,
            "byteStride": 12,
            "target": 34962
        },
        {
            "buffer": 0,
            "byteOffset": 220664,
            "byteLength": 73544,
            "byteStride": 8,
            "target": 34962
        },
        {
            "buffer": 0,
            "byteOffset": 294208,
            "byteLength": 8
        },
        {
            "buffer": 0,
            "byteOffset": 0,
            "byteLength": 32
        }
    ],
    "buffers": [
        {
            "byteLength": 314484,
            "uri": "data:application/octet-stream;base64,"
        }
    ]
}
